<svg id="Capa_1" enable-background="new 0 0 512 512" height="512" viewBox="0 0 512 512" width="512" xmlns="http://www.w3.org/2000/svg"><path d="m467.7 398.288c17.448-24.835 44.3-74.055 44.3-142.287 0-193.479-171.036-250.757-187.67-255.438-7.213-2.03-14.824 1.578-17.817 8.452-2.992 6.874-.451 14.901 5.953 18.799 1.053.641 105.268 65.601 105.268 196.054 0 32.394-11.045 65.24-31.66 92.793l-140.994-140.993 69.727-69.726c4.29-4.29 5.574-10.742 3.252-16.347s-7.792-9.26-13.858-9.26h-128.535c-3.979 0-7.793 1.58-10.606 4.394l-128.533 128.532c-5.858 5.858-5.858 15.355 0 21.213l64.267 64.266c5.857 5.858 15.355 5.858 21.213 0l53.66-53.659 129.868 129.867c-19.635 6.812-41.572 10.652-65.602 10.652-65.701 0-118.259-44.152-118.763-44.581-5.95-5.108-14.833-4.771-20.377.775l-96.4 96.4c-5.858 5.858-5.858 15.355 0 21.213l48.2 48.2c2.929 2.929 6.768 4.393 10.607 4.393s7.678-1.464 10.606-4.394l55.618-55.618c22.711 14.085 78.432 43.945 142.642 43.945 64.464 0 106.235-21.578 123.172-31.281l42.955 42.954c2.929 2.929 6.768 4.394 10.606 4.394s7.678-1.464 10.606-4.394l48.2-48.2c5.858-5.858 5.858-15.355 0-21.213zm-281.427-185.027c-2.929-2.929-6.768-4.394-10.606-4.394s-7.678 1.464-10.606 4.394l-53.66 53.66-43.053-43.053 113.532-113.534h86.107l-54.727 54.727c-2.813 2.813-4.394 6.628-4.394 10.606s1.581 7.793 4.394 10.606l152.692 152.692c-9.26 8.561-19.676 16.244-31.192 22.782zm85.794 252.673c-72.272 0-135.167-44.889-135.779-45.332-5.97-4.339-14.208-3.694-19.428 1.526l-53.66 53.66-26.987-26.987 76.525-76.525c20.822 14.736 68.752 43.326 127.194 43.326 58.903 0 112.632-21.048 151.29-59.267 35.913-35.505 56.51-83.787 56.51-132.466 0-61.485-20.707-109.669-42.898-143.647 21.425 18.737 38.652 40.373 51.27 64.406 17.184 32.728 25.896 70.2 25.896 111.373 0 53.868-19.947 106.675-54.726 144.881-38.739 42.557-92.409 65.052-155.207 65.052zm176.733 9.854-28.137-28.136c10.032-7.754 19.424-16.38 28.122-25.852l27.002 27.002z"/></svg>