<?xml version="1.0"?>
<svg xmlns="http://www.w3.org/2000/svg" id="Layer_2_copy" data-name="Layer 2 copy" viewBox="0 0 64 64" width="512" height="512"><title>25. China, Mao, person, communism</title><path d="M38,35H29a1,1,0,0,0,0,2h9a1,1,0,0,0,0-2Z"/><path d="M30,29a1,1,0,0,0,1,1h7a1,1,0,0,0,.948-1.316L36,19.838V16h7a1,1,0,0,0,0-2H35a1,1,0,0,0-1,1v5a1,1,0,0,0,.052.316L36.612,28H31A1,1,0,0,0,30,29Z"/><path d="M29,21a1,1,0,0,0-1-1H26a1,1,0,0,0,0,2h2A1,1,0,0,0,29,21Z"/><path d="M42,20H40a1,1,0,0,0,0,2h2a1,1,0,0,0,0-2Z"/><path d="M24,16h6a1,1,0,0,0,0-2H24a1,1,0,0,0,0,2Z"/><path d="M36,40H33a1,1,0,0,0,0,2h3a1,1,0,0,0,0-2Z"/><path d="M3,48H1a1,1,0,0,0,0,2H3a1,1,0,0,0,0-2Z"/><path d="M63,49H55.449L47.98,40.6A10.917,10.917,0,0,0,49,36V34.481l4.625-3.7A1,1,0,0,0,54,30V20a1,1,0,0,0-1.515-.857l-.56.336c2.206-3.987,4.334-8.891,2.906-11.033C52.725,5.284,41.642.6,40.385.077A1,1,0,0,0,40,0H25a1,1,0,0,0-.316.052c-.1.031-2.376.795-5.187,2.033a1,1,0,1,0,.807,1.83C22.623,2.894,24.615,2.189,25.166,2H39.8c4.72,1.98,12.042,5.565,13.368,7.555C54,10.805,51.85,15.743,49,20.532V16.046C49,7.633,42.963,3,32,3S15,7.6,15,15.954v4.8c-1.7-2.681-4-6.834-4-9.753,0-.817.712-2.581,5.483-5.212a1,1,0,0,0-.967-1.752C11.132,6.455,9,8.733,9,11c0,3.92,3.285,9.338,5.076,12H10a1,1,0,0,0-.977,1.217l2,9a1.006,1.006,0,0,0,.27.49l3.527,3.527L10.333,48H7a1,1,0,0,0,0,2h3.2A17.954,17.954,0,0,0,22.726,62.962a1,1,0,0,0,.789-.1L32.938,57.2,40.4,62.8a1,1,0,0,0,1.114.058l.467-.279c4.568-2.729,8.545-5.111,8.978-15.62l3.294,3.705A1,1,0,0,0,55,51h8a1,1,0,0,0,0-2ZM52,21.767V29.52l-3,2.4V24.3c.224-.339.481-.734.776-1.2ZM17,15.954C17,6.9,25.157,5,32,5S47,6.916,47,16.046V36a9.01,9.01,0,0,1-9,9H26a9.01,9.01,0,0,1-9-9V15.954ZM11.247,25H15v9.586L12.913,32.5ZM22.864,60.915A15.943,15.943,0,0,1,12.045,49.09l3.3-7.925A20.18,20.18,0,0,0,17.765,48.5a1,1,0,1,0,1.729-1,16.543,16.543,0,0,1-1.684-4.181A10.964,10.964,0,0,0,26,47H38a10.947,10.947,0,0,0,7.486-2.963,16.682,16.682,0,0,1-4.193,6.256A17.739,17.739,0,0,1,32.889,55a16.466,16.466,0,0,1-10.248-3.768,1,1,0,1,0-1.281,1.537,18.208,18.208,0,0,0,8.521,3.937ZM49,45c0,10.971-3.322,13.039-7.937,15.8L35.2,56.4a19.649,19.649,0,0,0,7.507-4.694,17.2,17.2,0,0,0,5.027-8.376L49.04,44.8A.954.954,0,0,0,49,45Z"/><path d="M60,54H59a1,1,0,0,0,0,2h1a1,1,0,0,0,0-2Z"/><path d="M54,56h1a1,1,0,0,0,0-2H54a1,1,0,0,0,0,2Z"/></svg>
