<svg height="512" viewBox="0 0 57 61" width="512" xmlns="http://www.w3.org/2000/svg"><g id="020---Soviet-Russia" fill="none"><g id="Icons" transform="translate(14)"><path id="Shape" d="m20.58 16.57c-.4108288.3207603-.5817549.861364-.43 1.36l2.27 7.23c.1714223.4838732.0103482 1.0230592-.3983984 1.3336153s-.9713767.3212235-1.3916016.0263847c-1.48-1.12-.33-.31-5.94-4.48-.4110352-.3001587-.9689648-.3001587-1.38 0-1.11.82 0 0-5.94 4.48-.42022486.2948388-.98285497.2841714-1.39160157-.0263847-.40874661-.3105561-.56982069-.8497421-.39839843-1.3336153l2.27-7.23c.15175495-.498636-.01917122-1.0392397-.43-1.36l-5.94-4.47c-.40959993-.3115998-.57960934-.8467234-.42495336-1.337588.15465599-.4908647.60071096-.83188576 1.11495336-.852412h7.34c.5144401-.0055039.9649227-.34640963 1.11-.84 2.2-6.94 1.75-5.57 2.27-7.23.1357788-.50126882.5906674-.84933407 1.11-.84933407s.9742212.34806525 1.11.84933407l2.27 7.23c.1450773.49359037.5955599.8344961 1.11.84h7.34c.5142424.02052624.9602974.3615473 1.1149534.852412.1546559.4908646-.0153535 1.0259882-.4249534 1.337588z" fill="#c81e1e"/><path id="Shape" d="m17.58 16.57c-.4108288.3207603-.5817549.861364-.43 1.36 2.4 7.82 2.36 7.39 2.32 7.71l-4.78-3.64c-.4110352-.3001587-.9689648-.3001587-1.38 0l-.81.61-.81-.61c-.4110352-.3001587-.9689648-.3001587-1.38 0l-4.78 3.6c0-.32-.08.12 2.32-7.71.15175495-.498636-.01917122-1.0392397-.43-1.36l-5.94-4.43c-.40959993-.3115998-.57960934-.8467234-.42495336-1.337588.15465599-.4908647.60071096-.83188576 1.11495336-.852412h7.34c.5144401-.0055039.9649227-.34640963 1.11-.84l1.88-6 1.88 6c.1450773.49359037.5955599.8344961 1.11.84h7.34c.5142424.02052624.9602974.3615473 1.1149534.852412.1546559.4908646-.0153535 1.0259882-.4249534 1.337588z" fill="#f44335"/></g><g id="Layer_10" fill="#000" transform="translate(0 -1)"><path id="Shape" d="m20.06 53.48c.425209.0017994.8050556-.2654933.9469283-.66634s.0147415-.8475753-.3169283-1.11366c-1.9-1.55-4.93-4.7-4.93-6.7 0-.5522847-.4477153-1-1-1s-1 .4477153-1 1c0 2.3 2.08 4.85 3.73 6.53h-2.73c-3.83 0-7.82-3-7.86-3-.28581247-.2161457-.66522644-.2633934-.99532032-.1239454-.33009389.1394481-.56071859.4444063-.605.8-.04428142.3555937.10450785.7077997.39032032.9239454.18.14 4.55 3.43 9.07 3.43z"/><path id="Shape" d="m12.43 46.56c-1.0076001-1.6446063-1.0076001-3.7153937 0-5.36.1478952-.2212469.2015002-.4923195.1489477-.7532053s-.2069274-.4900631-.4289477-.6367947c-.2224661-.146953-.4944049-.198982-.7554053-.1445287-.2610003.0544533-.4894485.2108796-.6345947.4345287-1.05580496 1.5821915-1.38002535 3.5420856-.89 5.38-2.5-.94-6.62-3-7.93-6.27-.09598946-.2486208-.28725019-.4486401-.53132676-.5556583-.24407658-.1070182-.52077448-.1121807-.76867324-.0143417-.24680768.0979351-.44453219.2900079-.54958156.5338726-.10504937.2438646-.10879764.5194964-.01041844.7661274 2.27 5.79 10.92 8.06 11.26 8.13.39856.1026251.8192928-.0494157 1.0601768-.3831174s.2527194-.7809068.0298232-1.1268826z"/><path id="Shape" d="m.61 30.05c-.50778259.2157051-.74494317.8018944-.53 1.31.13.32 3.33 7.83 6.71 10.12.30671748.207319.70287664.2282216 1.02970796.0543306s.53085038-.5141192.53029204-.8843306c0-1 .3-3.84 1.57-4.48.4942949-.2485281.6935281-.8507051.445-1.345s-.85070515-.6935281-1.345-.445c-1.54.78-2.19 2.67-2.47 4.17-1.87966827-2.457314-3.43574659-5.1460022-4.63-8-.22710949-.4961696-.81005221-.7186668-1.31-.5z"/><path id="Shape" d="m3.12 22.45c-.55228475 0-1 .4477153-1 1 .10536978 3.6774003 1.2760828 7.2451221 3.37 10.27.18704124.2679657.49321251.4276365.82.4276365s.63295876-.1596708.82-.4276365c.55-.83 2.31-3.17 3.85-4 .4942948-.2485282.6935281-.8507051.445-1.345-.2485282-.4942948-.8507052-.6935281-1.345-.445-1.452564.8804634-2.71678756 2.0393349-3.72 3.41-1.39804344-2.3998859-2.16845321-5.1135168-2.24-7.89 0-.2652165-.10535684-.5195704-.29289322-.7071068s-.44189029-.2928932-.70710678-.2928932z"/><path id="Shape" d="m7.66 18.2c-.52463816-.1707915-1.08847422.1156015-1.26.64-.67921873 2.307727-.67921873 4.762273 0 7.07.15325657.4662858.62226659.7524169 1.1070053.6753559s.84189414-.4945313.8429947-.9853559c0 0 0-1.15 2.18-1.15.5522847 0 1-.4477153 1-1s-.4477153-1-1-1c-.91176672-.0304666-1.81545643.1799344-2.62.61-.10582979-1.2139488.02665427-2.4368786.39-3.6.17079146-.5246382-.11560146-1.0884742-.64-1.26z"/><path id="Shape" d="m9.53 20.23c0 .5522847.44771525 1 1 1 .5260642.0012903.963177-.4052246 1-.93 0 0 .18-1.49 3.47-2.3.3572656-.0857437.6416489-.3555731.7460254-.7078461.1043765-.3522729.0128891-.7334708-.24-1-.252889-.2665292-.6287598-.3778976-.9860254-.2921539-4.85 1.26-4.99 3.93-4.99 4.23z"/><path id="Shape" d="m45.09 54.77c-1.37.56-5.46 1.84-7.77 1.06-4.21-1.43-4.83-2.34-9.32.83-4.5-3.17-5.14-2.25-9.32-.83-2.31.78-6.39-.5-7.77-1.06-.5136248-.2098682-1.1001318.0363752-1.31.55s.03637518 1.1001318.55 1.31c.23.09 5.68 2.27 9.17 1.09 3.66-1.24 3.83-2 7 .19-.5766139.4307878-1.1275536.8949127-1.65 1.39-.3371653.3991459-.3102154.990578.0618532 1.3574061.3720685.3668281.9638233.3853866 1.3581468.0425939 0 0 .56-.54 1.94-1.57.6751403.4871363 1.3227977 1.0112715 1.94 1.57.2424029.2869635.6251781.4138747.9910073.3285739.3658292-.0853009.6529963-.3684234.7434774-.7330059.0904811-.3645826-.0309882-.7491193-.3144847-.995568-.5224464-.4950873-1.0733861-.9592122-1.65-1.39 3.14-2.17 3.31-1.42 7-.19 3.49 1.18 8.94-1 9.17-1.09.332257-.1357609.5668475-.4384662.6154036-.7940897.0485561-.3556234-.0962991-.7101374-.38-.93-.2837009-.2198625-.6631466-.2716712-.9954036-.1359103z"/><path id="Shape" d="m49.1 48.45s-4 3-7.86 3h-2.73c1.65-1.68 3.73-4.23 3.73-6.53 0-.5522847-.4477153-1-1-1s-1 .4477153-1 1c0 2-3 5.2-4.93 6.75-.3316698.2660847-.458801.7128133-.3169283 1.11366s.5217193.6681394.9469283.66634h5.3c4.52 0 8.89-3.29 9.07-3.43.4418278-.3341323.5291322-.9631722.195-1.405-.3341323-.4418278-.9631722-.5291323-1.405-.195z"/><path id="Shape" d="m55.37 38.64c-.2478988-.097839-.5245967-.0926765-.7686732.0143417-.2440766.1070182-.4353373.3070375-.5313268.5556583-1.3 3.31-5.43 5.32-7.93 6.27.4900254-1.8379144.165805-3.7978085-.89-5.38-.1936677-.3049124-.5367199-.4816812-.8974248-.4624272-.3607049.0192539-.68299.2315375-.843098.555334s-.1331498.7087708.0705228 1.0070932c1.001234 1.6428002 1.001234 3.7071998 0 5.35-.2272119.3445476-.2194107.7932877.01964 1.1297294.2390508.3364418.6602366.4914613 1.06036.3902706.36-.09 9-2.34 11.27-8.13.0983792-.246631.0946309-.5222628-.0104184-.7661274-.1050494-.2438647-.3027739-.4359375-.5495816-.5338726z"/><path id="Shape" d="m47 34.38c-.3197527-.1607695-.7009859-.1387406-1.0000927.0577886-.2991069.1965292-.4706459.5377012-.45.895.0206458.3572987.23034.6764419.5500927.8372114 1.27.64 1.57 3.52 1.57 4.48-.0005583.3702114.2034607.7104396.530292.8843306.3268314.173891.7229905.1529884 1.029708-.0543306 3.38-2.29 6.58-9.8 6.71-10.12.1696468-.3342096.1381649-.7352243-.0815568-1.0388663s-.590789-.4589256-.9612847-.4022768c-.3704956.0566489-.6782082.3157181-.7971585.6711431-1.1902375 2.8559881-2.7466053 5.5451766-4.63 8-.3-1.54-.95-3.43-2.47-4.21z"/><path id="Shape" d="m52.88 22.45c-.5522847 0-1 .4477153-1 1-.0745383 2.7760266-.8447417 5.4889306-2.24 7.89-1.0032124-1.3706651-2.267436-2.5295366-3.72-3.41-.4942949-.2485281-1.0964719-.0492949-1.345.445s-.0492949 1.0964719.445 1.345c1.53.78 3.3 3.12 3.85 4 .1870412.2679657.4932125.4276365.82.4276365s.6329588-.1596708.82-.4276365c2.0939172-3.0248779 3.2646302-6.5925997 3.37-10.27 0-.5522847-.4477153-1-1-1z"/><path id="Shape" d="m45.47 22.45c-.5522847 0-1 .4477153-1 1s.4477153 1 1 1c2 0 2.17 1 2.18 1.15-.0856041.5522847.2927153 1.0693958.845 1.155.5522847.0856041 1.0693959-.2927153 1.155-.845.6792187-2.307727.6792187-4.762273 0-7.07-.1004945-.3521353-.385425-.6211779-.7427411-.7013255-.357316-.0801476-.7298622.0414201-.9711327.3168959s-.3126723.6607954-.1861262 1.0044296c.354582 1.1649301.486882 2.3861613.39 3.6-.8193281-.4387307-1.7414361-.6493996-2.67-.61z"/><path id="Shape" d="m41.48 16c-.5522847-.1325483-1.1074517.2077153-1.24.76s.2077153 1.1074517.76 1.24c3.21.81 3.47 2.21 3.48 2.3 0 .5522847.4477153 1 1 1s1-.4477153 1-1c-.01-.37-.15-3.04-5-4.3z"/><path id="Shape" d="m14.88 13.9 5.94 4.47c.18.13.26-.34-2.2 7.5-.2998847.9057948.0211935 1.9015025.7937345 2.4614805.7725411.559978 1.8187263.555334 2.5862655-.0114805l5.94-4.48c.12-.09-.36-.4 6.1 4.48.7658094.5647932 1.8094672.5676249 2.5783302.0069956.7688629-.5606292 1.0852676-1.5551732.7816698-2.4569956-2.45-7.8-2.38-7.37-2.2-7.5l5.94-4.47c.7620042-.5676641 1.0782403-1.5573466.7865903-2.4616879-.2916501-.9043413-1.1265102-1.5227952-2.0765903-1.5383121h-7.36c-.17 0 0 .4-2.43-7.37-.27208-.9105452-1.1096737-1.53445146-2.06-1.53445146s-1.78792.62390626-2.06 1.53445146l-2.27 7.25c-.07.2.41.13-7.5.13-.9446032.02095702-1.772443.6374987-2.0631027 1.5365157-.2906596.8990169.0195553 1.8835011.7731027 2.4534843zm10.7-3.53c2.48-7.92 2.25-7.37 2.42-7.37s0-.4 2.42 7.37c.2767844.9123215 1.1166208 1.5371273 2.07 1.54h7.34c.16 0 .25.27.09.39l-5.92 4.47c-.7511553.574587-1.0628309 1.5575637-.78 2.46 2.42 7.73 2.38 7.36 2.19 7.49s.44.45-6.1-4.47c-.7621795-.5800885-1.8178205-.5800885-2.58 0-6.54 4.92-6 4.56-6.1 4.47s-.29.41 2.19-7.49c.274172-.9108947-.0541256-1.8957875-.82-2.46-6.49-4.89-6.08-4.49-6-4.73s-.57-.13 7.49-.13c.9607699.0059559 1.8110799-.6205883 2.09-1.54z"/></g></g></svg>